<svg version="1.1" id="Layer_1" xmlns="http://www.w3.org/2000/svg" xmlns:xlink="http://www.w3.org/1999/xlink" x="0px" y="0px" viewBox="0 0 561.2 131.8" style="enable-background:new 0 0 561.2 131.8;" xml:space="preserve">
<style type="text/css">
	.st0{fill:#272736;}
	.st1{fill:#8F20FF;}
</style>
<g>
	<path class="st0" d="M198.1,61.6l-8.8-12.7h-0.5h-9.2v12.7H169V16h19.7c12.2,0,19.8,6.3,19.8,16.6c0,6.8-3.5,11.9-9.4,14.4   l10.2,14.7H198.1z M188.2,24.6h-8.6v15.9h8.6c6.5,0,9.7-3,9.7-7.9C197.9,27.5,194.6,24.6,188.2,24.6z"/>
	<path class="st0" d="M249.1,46.9h-26.5c1,4.4,4.7,7,10,7c3.7,0,6.4-1.1,8.8-3.4l5.4,5.9c-3.3,3.7-8.1,5.7-14.5,5.7   c-12.1,0-20-7.6-20-18.1c0-10.5,8-18.1,18.7-18.1c10.3,0,18.2,6.9,18.2,18.2C249.3,45,249.1,46.1,249.1,46.9z M222.4,41h17.3   c-0.7-4.4-4-7.3-8.6-7.3C226.4,33.7,223.1,36.5,222.4,41z"/>
	<path class="st0" d="M251.3,58.3l3.4-7.3c3.1,2,7.9,3.4,12.2,3.4c4.7,0,6.5-1.2,6.5-3.2c0-5.7-21.2,0.1-21.2-13.9   c0-6.6,6-11.3,16.2-11.3c4.8,0,10.2,1.1,13.5,3.1l-3.4,7.2c-3.5-2-6.9-2.6-10.1-2.6c-4.6,0-6.5,1.4-6.5,3.3c0,6,21.2,0.2,21.2,14   c0,6.5-6.1,11.1-16.6,11.1C260.6,62.1,254.6,60.5,251.3,58.3z"/>
	<path class="st0" d="M286.8,16c0-3.2,2.5-5.7,6.3-5.7c3.8,0,6.3,2.3,6.3,5.5c0,3.4-2.5,5.9-6.3,5.9C289.3,21.6,286.8,19.2,286.8,16   z M288,26.5h10.2v35.1H288V26.5z"/>
	<path class="st0" d="M342,13.2v48.4h-9.7v-4c-2.5,3.1-6.3,4.6-10.9,4.6c-9.9,0-17.5-7-17.5-18.1c0-11,7.6-18.1,17.5-18.1   c4.3,0,8,1.4,10.5,4.2v-17H342z M332.1,44.1c0-6.1-3.9-9.7-8.9-9.7c-5.1,0-9,3.6-9,9.7c0,6.1,3.9,9.7,9,9.7   C328.2,53.8,332.1,50.1,332.1,44.1z"/>
	<path class="st0" d="M384.3,46.9h-26.5c1,4.4,4.7,7,10,7c3.7,0,6.4-1.1,8.8-3.4l5.4,5.9c-3.3,3.7-8.1,5.7-14.5,5.7   c-12.1,0-20-7.6-20-18.1c0-10.5,8-18.1,18.7-18.1c10.3,0,18.2,6.9,18.2,18.2C384.5,45,384.3,46.1,384.3,46.9z M360.4,22h-7.4   l8.6-9.4h9l8.6,9.4h-7.4l-5.7-5L360.4,22z M357.6,41h17.3c-0.7-4.4-4-7.3-8.6-7.3C361.7,33.7,358.3,36.5,357.6,41z"/>
	<path class="st0" d="M425.8,41.5v20.1h-10.2V43.1c0-5.7-2.6-8.3-7.1-8.3c-4.9,0-8.4,3-8.4,9.4v17.3h-10.2V26.5h9.7v4.1   c2.7-3,6.8-4.6,11.6-4.6C419.5,26,425.8,30.8,425.8,41.5z"/>
	<path class="st0" d="M431.4,44.1c0-10.6,8.1-18.1,19.5-18.1c7.4,0,13.2,3.2,15.7,8.9l-7.9,4.2c-1.9-3.3-4.7-4.8-7.9-4.8   c-5.1,0-9.2,3.6-9.2,9.7s4,9.7,9.2,9.7c3.2,0,6-1.4,7.9-4.8l7.9,4.3c-2.5,5.6-8.3,8.9-15.7,8.9C439.6,62.1,431.4,54.6,431.4,44.1z"/>
	<path class="st0" d="M470,16c0-3.2,2.5-5.7,6.3-5.7c3.8,0,6.3,2.3,6.3,5.5c0,3.4-2.5,5.9-6.3,5.9C472.6,21.6,470,19.2,470,16z    M471.3,26.5h10.2v35.1h-10.2V26.5z"/>
	<path class="st0" d="M520.6,41.6v20h-9.5v-4.4c-1.9,3.2-5.5,4.9-10.7,4.9c-8.2,0-13.1-4.6-13.1-10.6c0-6.2,4.4-10.5,15.1-10.5h8.1   c0-4.4-2.6-6.9-8.1-6.9c-3.7,0-7.6,1.2-10.1,3.3l-3.6-7.1c3.8-2.7,9.5-4.2,15.1-4.2C514.4,26,520.6,31,520.6,41.6z M510.4,50.5   v-3.6h-7c-4.8,0-6.3,1.8-6.3,4.1c0,2.5,2.2,4.2,5.7,4.2C506.3,55.3,509.3,53.7,510.4,50.5z"/>
	<path class="st0" d="M204,72.4v48.4h-9.7v-4c-2.5,3.1-6.3,4.6-10.9,4.6c-9.9,0-17.5-7-17.5-18.1c0-11,7.6-18.1,17.5-18.1   c4.3,0,8,1.4,10.5,4.2v-17H204z M194.1,103.2c0-6.1-3.9-9.7-8.9-9.7c-5.1,0-9,3.6-9,9.7c0,6.1,3.9,9.7,9,9.7   C190.1,112.9,194.1,109.3,194.1,103.2z"/>
	<path class="st0" d="M246.3,106.1h-26.5c1,4.4,4.7,7,10,7c3.7,0,6.4-1.1,8.8-3.4l5.4,5.9c-3.3,3.7-8.1,5.7-14.5,5.7   c-12.1,0-20-7.6-20-18.1c0-10.5,8-18.1,18.7-18.1c10.3,0,18.2,6.9,18.2,18.2C246.4,104.1,246.3,105.2,246.3,106.1z M219.6,100.2   h17.3c-0.7-4.4-4-7.3-8.6-7.3C223.6,92.9,220.3,95.7,219.6,100.2z"/>
	<path class="st0" d="M266.2,116.3l3.6-8c3.8,2.8,9.6,4.8,15.1,4.8c6.3,0,8.8-2.1,8.8-4.9c0-8.5-26.5-2.7-26.5-19.6   c0-7.8,6.3-14.2,19.2-14.2c5.7,0,11.6,1.4,15.8,4l-3.3,8c-4.2-2.4-8.6-3.6-12.6-3.6c-6.3,0-8.7,2.3-8.7,5.2   c0,8.4,26.5,2.6,26.5,19.4c0,7.6-6.3,14.1-19.4,14.1C277.5,121.5,270.2,119.4,266.2,116.3z"/>
	<path class="st0" d="M306.7,103.2c0-10.6,8.1-18.1,19.3-18.1c11.1,0,19.2,7.5,19.2,18.1s-8.1,18.1-19.2,18.1   C314.9,121.3,306.7,113.8,306.7,103.2z M334.9,103.2c0-6.1-3.8-9.7-8.9-9.7c-5.1,0-9,3.6-9,9.7c0,6.1,3.9,9.7,9,9.7   C331.1,112.9,334.9,109.3,334.9,103.2z"/>
	<path class="st0" d="M361.9,86.5h9v7.8h-8.7v26.5h-10.2V94.3h-5.4v-7.8h5.4v-1.6c0-7.9,4.8-13,13.6-13c2.9,0,5.9,0.6,7.8,1.9   l-2.7,7.4c-1.1-0.8-2.5-1.2-4.1-1.2c-3,0-4.6,1.6-4.6,5.1V86.5z"/>
	<path class="st0" d="M397.2,119.1c-2.1,1.5-5.1,2.2-8.3,2.2c-8.3,0-13.1-4.2-13.1-12.6V94.3h-5.4v-7.8h5.4v-8.5H386v8.5h8.7v7.8   H386v14.3c0,3,1.6,4.6,4.4,4.6c1.5,0,3-0.5,4.1-1.3L397.2,119.1z"/>
	<path class="st0" d="M457.3,85.7l-12.7,35.1h-9.8L427,99l-8.1,21.8H409l-12.6-35.1h9.6l8.3,23.7l8.6-23.7h8.6l8.3,23.7l8.5-23.7   H457.3z"/>
	<path class="st0" d="M490.6,100.7v20h-9.5v-4.4c-1.9,3.2-5.5,4.9-10.7,4.9c-8.2,0-13.1-4.6-13.1-10.6c0-6.2,4.4-10.5,15.1-10.5h8.1   c0-4.4-2.6-6.9-8.1-6.9c-3.7,0-7.6,1.2-10.1,3.3l-3.6-7.1c3.8-2.7,9.5-4.2,15.1-4.2C484.4,85.2,490.6,90.1,490.6,100.7z    M480.5,109.7v-3.6h-7c-4.8,0-6.3,1.8-6.3,4.1c0,2.5,2.2,4.2,5.7,4.2C476.3,114.4,479.3,112.9,480.5,109.7z"/>
	<path class="st0" d="M520.3,85.2v9.4c-0.8-0.1-1.5-0.1-2.3-0.1c-5.6,0-9.3,3.1-9.3,9.8v16.6h-10.2V85.7h9.7v4.6   C510.7,86.9,514.9,85.2,520.3,85.2z"/>
	<path class="st0" d="M558.8,106.1h-26.5c1,4.4,4.7,7,10,7c3.7,0,6.4-1.1,8.8-3.4l5.4,5.9c-3.3,3.7-8.1,5.7-14.5,5.7   c-12.1,0-20-7.6-20-18.1c0-10.5,8-18.1,18.7-18.1c10.3,0,18.2,6.9,18.2,18.2C559,104.1,558.9,105.2,558.8,106.1z M532.2,100.2h17.3   c-0.7-4.4-4-7.3-8.6-7.3C536.2,92.9,532.9,95.7,532.2,100.2z"/>
</g>
<g>
	<g>
		<path class="st1" d="M0,65.9c0,0,11,3.1,11,13.9v29c0,14.9,8.2,23,24.1,23h7h75c15.9,0,24.1-8,24.1-23v-29c0-10.9,11-13.9,11-13.9    l0,0c0,0-11-3.1-11-13.9V23c0-14.9-8.2-23-24.1-23l-75,0l-7,0C19.2,0,11,8,11,23v29C11,62.8,0,65.9,0,65.9L0,65.9z M13.7,65.9    c6.3-2,9.2-6,9.2-15.3V22c0-7.2,3.8-11.4,11.8-11.4H38h79.5c8.1,0,11.8,4.2,11.8,11.4v28.6c0,9.3,2.8,13.4,9.2,15.3    c-6.3,2-9.2,6-9.2,15.3v28.5c0,7.2-3.8,11.4-11.8,11.4H38h-3.3c-8.1,0-11.8-4.2-11.8-11.4V81.2C22.8,71.9,20,67.9,13.7,65.9z"/>
	</g>
	<g>
		
			<rect x="73" y="80.6" transform="matrix(-1 -4.510493e-11 4.510493e-11 -1 158.5616 167.344)" class="st1" width="12.5" height="6.2"/>
		
			<rect x="51.4" y="80.6" transform="matrix(-1 -4.523993e-11 4.523993e-11 -1 122.3213 167.344)" class="st1" width="19.5" height="6.2"/>
		
			<rect x="77.1" y="89.5" transform="matrix(-1 -4.492641e-11 4.492641e-11 -1 172.3287 185.0958)" class="st1" width="18.2" height="6.2"/>
		
			<rect x="67.8" y="89.5" transform="matrix(-1 -4.456803e-11 4.456803e-11 -1 142.8403 185.0958)" class="st1" width="7.3" height="6.2"/>
		
			<rect x="51.4" y="89.5" transform="matrix(-1 -4.496993e-11 4.496993e-11 -1 117.0991 185.0958)" class="st1" width="14.3" height="6.2"/>
		<rect x="51.4" y="98.3" class="st1" width="20.2" height="6.2"/>
		<rect x="73.7" y="98.3" class="st1" width="9.3" height="6.2"/>
		<rect x="85.2" y="98.3" class="st1" width="12.2" height="6.2"/>
		
			<rect x="78.2" y="45.1" transform="matrix(-1 -4.516000e-11 4.516000e-11 -1 167.0152 96.3369)" class="st1" width="10.6" height="6.2"/>
		
			<rect x="67.6" y="54" transform="matrix(-1 -4.489488e-11 4.489488e-11 -1 151.7056 114.0887)" class="st1" width="16.5" height="6.2"/>
		<rect x="38.8" y="71.7" class="st1" width="16.6" height="6.2"/>
		<rect x="57.6" y="71.7" class="st1" width="10.7" height="6.2"/>
		<rect x="70.4" y="71.7" class="st1" width="26.6" height="6.2"/>
		<rect x="51.4" y="62.8" class="st1" width="24.7" height="6.2"/>
		<rect x="78.2" y="62.8" class="st1" width="22" height="6.2"/>
		<rect x="87.7" y="80.6" class="st1" width="12.4" height="6.2"/>
		<rect x="102.1" y="80.6" class="st1" width="11.2" height="6.2"/>
		<rect x="97.4" y="89.5" class="st1" width="16" height="6.2"/>
		
			<rect x="102" y="98.3" transform="matrix(-1 -1.180845e-11 1.180845e-11 -1 215.3167 202.8476)" class="st1" width="11.4" height="6.2"/>
		
			<rect x="87.7" y="98.3" transform="matrix(-1 -4.469436e-12 4.469436e-12 -1 187.5107 202.8476)" class="st1" width="12.2" height="6.2"/>
		<rect x="86.2" y="54" class="st1" width="10.6" height="6.2"/>
		<rect x="98.9" y="54" class="st1" width="14.4" height="6.2"/>
		
			<rect x="102.3" y="62.8" transform="matrix(-1 3.316402e-11 -3.316402e-11 -1 215.6638 131.8405)" class="st1" width="11.1" height="6.2"/>
		
			<rect x="99" y="36.2" transform="matrix(-1 -4.476520e-11 4.476520e-11 -1 212.3719 78.5851)" class="st1" width="14.3" height="6.2"/>
		
			<rect x="89.7" y="36.2" transform="matrix(-1 -4.393076e-11 4.393076e-11 -1 186.605 78.5851)" class="st1" width="7.2" height="6.2"/>
		
			<rect x="102.7" y="27.3" transform="matrix(-1 -4.505075e-11 4.505075e-11 -1 216.0563 60.8333)" class="st1" width="10.7" height="6.2"/>
		
			<rect x="90.9" y="45.1" transform="matrix(-1 -4.493840e-11 4.493840e-11 -1 204.271 96.3369)" class="st1" width="22.4" height="6.2"/>
		
			<rect x="99" y="71.7" transform="matrix(-1 -1.586921e-11 1.586921e-11 -1 212.3875 149.5923)" class="st1" width="14.3" height="6.2"/>
	</g>
</g>
</svg>